<?xml version="1.0" encoding="UTF-8"?>
<svg version="1.1" xmlns="http://www.w3.org/2000/svg" width="500" height="500">
<path d="M0 0 C0.92003815 0.00182281 1.84007629 0.00364563 2.78799438 0.00552368 C16.83253655 0.0522703 30.49127063 0.6387816 44.3125 3.3125 C45.68631836 3.56193359 45.68631836 3.56193359 47.08789062 3.81640625 C68.71791657 7.79739262 89.56208427 14.63609374 109.3125 24.3125 C110.15409668 24.72371094 110.99569336 25.13492187 111.86279297 25.55859375 C124.0376489 31.5735125 135.40127348 38.22900523 146.3125 46.3125 C147.16183105 46.93656738 147.16183105 46.93656738 148.02832031 47.57324219 C165.59241391 60.54824044 181.88226997 75.03469056 195.3125 92.3125 C196.10011719 93.29476562 196.88773437 94.27703125 197.69921875 95.2890625 C229.28482077 134.97561881 250.25002406 186.91524468 250.515625 238.04296875 C250.52263931 238.94770432 250.52965363 239.85243988 250.53688049 240.78459167 C250.55429957 243.6897789 250.56073308 246.59476247 250.5625 249.5 C250.56317474 250.49114807 250.56384949 251.48229614 250.56454468 252.503479 C250.54920722 266.65378641 250.23023315 280.41799513 247.3125 294.3125 C247.13557617 295.19873047 246.95865234 296.08496094 246.77636719 296.99804688 C239.97066503 330.68568483 227.8195937 364.4000669 207.3125 392.3125 C206.88001953 392.91046387 206.44753906 393.50842773 206.00195312 394.12451172 C192.21287129 413.15779512 176.96536977 430.87496803 158.3125 445.3125 C157.29671875 446.12203125 156.2809375 446.9315625 155.234375 447.765625 C119.55006756 476.0184199 76.35980851 493.5379255 31.3125 499.3125 C30.63727295 499.39982895 29.9620459 499.4871579 29.26635742 499.57713318 C23.78694342 500.23857875 18.38759877 500.48594391 12.87109375 500.515625 C11.99420395 500.52268463 11.11731415 500.52974426 10.21385193 500.53701782 C-32.63553832 500.80345558 -71.86041607 494.17044237 -110.6875 475.3125 C-111.40856934 474.96493652 -112.12963867 474.61737305 -112.87255859 474.25927734 C-129.20426356 466.28825525 -144.90350129 456.16309955 -158.6875 444.3125 C-159.76741761 443.41438785 -160.84821844 442.51733711 -161.9296875 441.62109375 C-174.0148878 431.52889727 -185.01014417 420.7622875 -194.6875 408.3125 C-195.47511719 407.33023437 -196.26273438 406.34796875 -197.07421875 405.3359375 C-231.39462159 362.21316913 -249.87739979 308.55245104 -249.87280273 253.61767578 C-249.87497937 250.71501778 -249.89315911 247.81274686 -249.91210938 244.91015625 C-249.96008812 229.45283873 -248.69282714 214.63964541 -245.4375 199.5 C-245.22061523 198.48502441 -245.00373047 197.47004883 -244.78027344 196.42431641 C-237.97255477 165.45064903 -225.65756956 133.92564635 -206.6875 108.3125 C-206.24051758 107.69616699 -205.79353516 107.07983398 -205.33300781 106.44482422 C-199.19478193 97.98200324 -192.81893755 89.96912094 -185.6875 82.3125 C-184.49509878 80.94174817 -183.30736117 79.56692137 -182.125 78.1875 C-176.10178515 71.30973293 -169.64372936 65.28998349 -162.50390625 59.578125 C-160.73881551 58.15821844 -158.9929783 56.71365795 -157.27734375 55.234375 C-126.47439082 28.87368628 -87.79446986 12.1129485 -48.3125 4 C-47.24708984 3.77908691 -47.24708984 3.77908691 -46.16015625 3.55371094 C-30.85607167 0.63115096 -15.53905754 -0.06424953 0 0 Z M-97.6875 137.3125 C-98.89792969 138.33730469 -98.89792969 138.33730469 -100.1328125 139.3828125 C-105.11594008 143.69026176 -109.53125854 148.20650945 -113.6875 153.3125 C-114.43644531 154.21226562 -115.18539062 155.11203125 -115.95703125 156.0390625 C-120.95430741 162.25614623 -125.3246173 168.68935753 -129.375 175.5625 C-129.80200195 176.27510986 -130.22900391 176.98771973 -130.66894531 177.72192383 C-132.09863808 180.21352608 -133.39492372 182.74658014 -134.6875 185.3125 C-135.26945633 186.45807373 -135.85141266 187.60364746 -136.45100403 188.78393555 C-142.07513469 200.61186007 -142.75337343 211.28518617 -142.6875 224.234375 C-142.69733162 226.31212232 -142.70892464 228.38986196 -142.72216797 230.46759033 C-142.74137355 234.79775243 -142.73469426 239.12690536 -142.70996094 243.45703125 C-142.68134146 248.94527289 -142.72496829 254.43017084 -142.78936768 259.91801071 C-142.83011936 264.2030715 -142.82787874 268.4873598 -142.81396484 272.77256012 C-142.81300617 274.79273837 -142.82549674 276.81297879 -142.85302734 278.83296967 C-143.07426705 297.87386312 -137.60382959 312.76092522 -126.6875 328.3125 C-103.92960782 326.92553054 -103.92960782 326.92553054 -84.83984375 315.43359375 C-83.4803896 313.36734486 -83.4803896 313.36734486 -83.796875 310.9453125 C-84.86130661 307.79870326 -86.3268051 305.09375384 -87.9375 302.1875 C-101.57647463 276.03705803 -102.01688137 240.97554622 -94.0234375 213.05859375 C-90.75988264 203.90728057 -86.22158574 195.28976528 -80.6875 187.3125 C-80.27628906 186.71824219 -79.86507812 186.12398438 -79.44140625 185.51171875 C-69.72519329 173.18327804 -53.57534568 166.17841705 -38.3671875 163.9765625 C-35.80734788 163.6796532 -33.25938151 163.47372242 -30.6875 163.3125 C-29.84445313 163.25835937 -29.00140625 163.20421875 -28.1328125 163.1484375 C-12.82063962 162.64863364 2.2129166 166.92249302 13.9375 177 C15.07874569 178.08736714 16.20623784 179.18956052 17.3125 180.3125 C18.1375 181.116875 18.9625 181.92125 19.8125 182.75 C20.3075 183.265625 20.8025 183.78125 21.3125 184.3125 C21.0232506 182.66624012 20.73093946 181.02051818 20.4375 179.375 C20.19386719 178.00021484 20.19386719 178.00021484 19.9453125 176.59765625 C19.1531434 172.48522282 18.22101244 168.40080598 17.3125 164.3125 C31.1725 164.8075 31.1725 164.8075 45.3125 165.3125 C52.95140244 196.28214243 60.20990812 227.34003108 67.46435547 258.40136719 C69.214687 265.89575266 70.96811407 273.38941162 72.72265625 280.8828125 C73.11445068 282.55614151 73.11445068 282.55614151 73.51416016 284.26327515 C74.01775481 286.414064 74.52135567 288.56485141 75.02496338 290.71563721 C76.16163701 295.57073303 77.2976653 300.42597979 78.43359375 305.28125 C78.72303612 306.51840256 78.72303612 306.51840256 79.01832581 307.7805481 C79.44973039 309.62452898 79.88111753 311.46851394 80.3125 313.3125 C81.3025 313.3125 82.2925 313.3125 83.3125 313.3125 C85.56674393 305.14612066 87.80203061 296.97488079 90.01388645 288.79693031 C91.04173794 284.99893399 92.07581474 281.20287543 93.12475586 277.41064453 C94.13849431 273.74475389 95.13504458 270.07456943 96.12028313 266.40092087 C96.49741142 265.00640275 96.88050664 263.61348298 97.26989937 262.22233963 C99.48001308 254.31005377 101.05385518 247.46111009 99.3125 239.3125 C99.06282974 238.12130554 98.81315948 236.93011108 98.55592346 235.70281982 C97.6100794 231.35057123 96.5717104 227.02181776 95.53125 222.69140625 C95.15340464 221.09875243 94.77609443 219.50597156 94.39929199 217.91307068 C93.61301652 214.59483569 92.82263502 211.2776182 92.02880859 207.96118164 C91.01123587 203.70995937 90.0005159 199.45714745 88.99239349 195.20367527 C88.0282681 191.13658845 87.06131221 187.07017664 86.09375 183.00390625 C85.90969101 182.22980471 85.72563202 181.45570316 85.53599548 180.658144 C85.01576586 178.47297929 84.49358656 176.28829077 83.97070312 174.10375977 C83.67393677 172.86151138 83.37717041 171.619263 83.07141113 170.33937073 C82.3487918 167.2946811 82.3487918 167.2946811 81.3125 164.3125 C90.8825 164.3125 100.4525 164.3125 110.3125 164.3125 C110.86357422 167.14094482 111.41464844 169.96938965 111.98242188 172.88354492 C114.26121757 184.3759465 116.90504669 195.77359143 119.59375 207.17578125 C120.09433826 209.30839414 120.59469968 211.44106028 121.09484863 213.57377625 C122.13488816 218.00548539 123.17716216 222.43666074 124.22119141 226.86743164 C125.54954706 232.50536844 126.87293601 238.14445678 128.1947403 243.78393269 C129.22426377 248.17445864 130.25606221 252.56444753 131.28855896 256.95427513 C131.77709825 259.03225713 132.2650403 261.11037964 132.75233459 263.18865395 C135.432888 274.61368869 138.19378459 285.99818211 141.3125 297.3125 C144.03363481 294.59136519 144.45054053 291.57144752 145.3125 287.9375 C145.48692627 287.21361084 145.66135254 286.48972168 145.84106445 285.74389648 C154.91635586 247.35952933 149.13338579 207.15694112 128.796875 173.1953125 C120.24287348 159.51586454 109.87475082 146.48814013 97.3125 136.3125 C96.39082031 135.55324219 95.46914063 134.79398438 94.51953125 134.01171875 C72.12005291 115.93107078 45.00549509 104.32920677 16.3125 101.3125 C15.05824219 101.1784375 13.80398438 101.044375 12.51171875 100.90625 C-27.3920368 97.29387977 -67.50030184 111.42496211 -97.6875 137.3125 Z M-53.6875 187.3125 C-70.89058673 208.74206485 -72.83955865 240.6831092 -70.19140625 266.91796875 C-67.66815131 287.85775712 -61.56325652 310.18081863 -44.51953125 324.03125 C-36.33495524 329.75521787 -28.59482231 331.15767442 -18.6875 330.3125 C-15.65336082 329.41204579 -13.27380632 328.11814704 -10.6875 326.3125 C-9.676875 325.61125 -8.66625 324.91 -7.625 324.1875 C2.93388613 314.74459371 8.84338361 299.95761688 11.3125 286.3125 C11.3125 285.3225 11.3125 284.3325 11.3125 283.3125 C14.2825 283.6425 17.2525 283.9725 20.3125 284.3125 C21.48969801 287.20444307 22.65444792 290.10039856 23.8125 293 C24.14636719 293.81662109 24.48023438 294.63324219 24.82421875 295.47460938 C28.04321495 303.58779369 28.04321495 303.58779369 27.3125 307.3125 C25.03963068 311.26197941 22.14466477 314.74848381 19.3125 318.3125 C18.73886719 319.05371094 18.16523438 319.79492188 17.57421875 320.55859375 C6.64607154 333.93840167 -9.6411418 340.70776796 -26.45703125 342.62890625 C-43.02944953 343.39913858 -59.44602571 336.0465316 -71.6875 325.3125 C-72.22246094 324.74917969 -72.75742188 324.18585938 -73.30859375 323.60546875 C-74.61561126 322.08449671 -74.61561126 322.08449671 -76.6875 322.3125 C-77.6775 328.2525 -78.6675 334.1925 -79.6875 340.3125 C-92.2275 340.3125 -104.7675 340.3125 -117.6875 340.3125 C-115.89781019 344.78672452 -115.14597858 346.21038647 -111.875 349.3125 C-111.15699219 350.0034375 -110.43898437 350.694375 -109.69921875 351.40625 C-109.03535156 352.0353125 -108.37148437 352.664375 -107.6875 353.3125 C-102.6875 358.3125 -102.6875 358.3125 -101.09765625 360.04296875 C-75.77061052 386.86928992 -36.54952173 398.71237532 -0.6875 400.3125 C35.59126381 400.80811153 70.91958672 386.60354847 98.3125 363.3125 C99.09238281 362.65507812 99.87226563 361.99765625 100.67578125 361.3203125 C105.68976954 356.98890077 110.08688357 352.40639378 114.3125 347.3125 C115.31410156 346.2296875 115.31410156 346.2296875 116.3359375 345.125 C116.98820313 344.3825 117.64046875 343.64 118.3125 342.875 C118.910625 342.21628906 119.50875 341.55757812 120.125 340.87890625 C123.3033615 334.00988157 119.06556619 323.42187317 117.37109375 316.40234375 C117.08396011 315.19429581 116.79682648 313.98624786 116.50099182 312.74159241 C115.58903017 308.90984017 114.6696327 305.07991759 113.75 301.25 C113.12715612 298.64153761 112.50593907 296.03268874 111.88476562 293.42382812 C110.36632124 287.05202703 108.84177929 280.6817088 107.3125 274.3125 C104.8243595 276.8006405 104.52149557 278.59042006 103.61669922 281.98388672 C103.29651825 283.17207001 102.97633728 284.3602533 102.64645386 285.58444214 C102.30307238 286.8869468 101.9599909 288.18953058 101.6171875 289.4921875 C101.26177663 290.82508265 100.90590474 292.15785494 100.54959106 293.49050903 C99.80394386 296.28534562 99.06307711 299.08139269 98.32568359 301.87841797 C97.38100302 305.46064508 96.42587372 309.0399823 95.46729851 312.61851311 C94.73091372 315.37132116 93.99945422 318.12541886 93.26953506 320.87994766 C92.91924105 322.19998451 92.56757379 323.51965774 92.21450424 324.83895493 C91.72127976 326.68544447 91.23523758 328.53384798 90.74951172 330.38232422 C90.47130585 331.43330292 90.19309998 332.48428162 89.90646362 333.56710815 C89.17152863 336.49594004 89.17152863 336.49594004 89.3125 340.3125 C79.4125 340.3125 69.5125 340.3125 59.3125 340.3125 C57.95582702 336.92081756 56.92818064 334.11032695 56.11857605 330.63182068 C55.90428452 329.71987946 55.68999298 328.80793823 55.46920776 327.86836243 C55.12709763 326.38556038 55.12709763 326.38556038 54.77807617 324.87280273 C54.53222275 323.82155212 54.28636932 322.77030151 54.0330658 321.68719482 C53.22022688 318.20766581 52.41290154 314.72688086 51.60546875 311.24609375 C51.03776711 308.81241451 50.46967115 306.37882722 49.90119934 303.94532776 C48.55508462 298.17945717 47.21224951 292.41282966 45.87122375 286.64577395 C43.34105516 275.765204 40.80421507 264.88619008 38.26574135 254.00755501 C37.43948154 250.46337134 36.61547978 246.91866871 35.79179382 243.37388611 C32.75339847 230.32156894 29.61362778 217.30093919 26.3125 204.3125 C23.67741533 207.73063696 21.64846455 211.24464237 19.625 215.0625 C19.30466797 215.66449219 18.98433594 216.26648438 18.65429688 216.88671875 C17.8706833 218.36038011 17.09117267 219.83622194 16.3125 221.3125 C13.6725 221.3125 11.0325 221.3125 8.3125 221.3125 C8.21453125 220.44109375 8.1165625 219.5696875 8.015625 218.671875 C6.07611943 203.22270991 1.80503984 188.52379344 -10.6875 178.3125 C-26.09357186 167.69655133 -42.10938946 174.57838467 -53.6875 187.3125 Z M81.3125 314.3125 C82.3125 316.3125 82.3125 316.3125 82.3125 316.3125 Z " fill="#41B8D5" transform="translate(249.6875,-0.3125)"/>
<path d="M0 0 C1.37108414 0.00123871 1.37108414 0.00123871 2.76986694 0.00250244 C38.08777684 0.07581374 38.08777684 0.07581374 49.3125 5.3125 C49.3125 5.6425 49.3125 5.9725 49.3125 6.3125 C48.46429688 6.44785156 47.61609375 6.58320312 46.7421875 6.72265625 C33.7708123 9.10311741 21.02039828 13.91325994 12.3125 24.3125 C3.76297142 36.91101307 -0.32068039 49.01039185 1.3125 64.3125 C3.01886105 73.11423806 6.45382289 82.55528019 12.99609375 88.9609375 C14.3125 90.3125 14.3125 90.3125 14.3125 92.3125 C15.16328125 92.71855469 15.16328125 92.71855469 16.03125 93.1328125 C18.39951529 94.35749763 20.58858311 95.71758233 22.8125 97.1875 C23.5653125 97.67992188 24.318125 98.17234375 25.09375 98.6796875 C27.40298919 100.37909239 29.33766504 102.2389233 31.3125 104.3125 C30.42691406 104.17972656 29.54132813 104.04695313 28.62890625 103.91015625 C-12.03639945 98.11291704 -52.71078917 105.03608879 -86.6875 129.3125 C-90.44217619 132.21384069 -94.07939025 135.23160264 -97.6875 138.3125 C-98.42097656 138.92222656 -99.15445313 139.53195313 -99.91015625 140.16015625 C-104.66058779 144.17834401 -108.7540479 148.49685391 -112.6875 153.3125 C-113.43773437 154.21355469 -114.18796875 155.11460937 -114.9609375 156.04296875 C-125.70218511 169.41023115 -133.96228124 184.15143944 -139.6875 200.3125 C-140.3475 199.9825 -141.0075 199.6525 -141.6875 199.3125 C-141.6875 188.0925 -141.6875 176.8725 -141.6875 165.3125 C-150.9275 165.3125 -160.1675 165.3125 -169.6875 165.3125 C-169.6875 223.0625 -169.6875 280.8125 -169.6875 340.3125 C-167.7075 340.3125 -165.7275 340.3125 -163.6875 340.3125 C-166.48281024 342.50515161 -169.32140469 344.24051816 -172.4375 345.9375 C-182.80062078 352.17667698 -189.80041035 362.64329745 -193.25463867 374.21191406 C-195.84359804 386.77559507 -194.41218302 399.94987157 -188.6875 411.3125 C-188.00667693 412.97343413 -187.33533439 414.63842329 -186.6875 416.3125 C-191.38813828 412.67419208 -194.8755691 408.85085464 -198.375 404.0625 C-199.15254639 403.00542847 -199.15254639 403.00542847 -199.94580078 401.92700195 C-201.54290189 399.73347809 -203.11981841 397.52712974 -204.6875 395.3125 C-205.37851807 394.33772705 -205.37851807 394.33772705 -206.08349609 393.34326172 C-234.77603452 352.28343084 -249.87697879 303.52152808 -249.87280273 253.61767578 C-249.87497937 250.71501778 -249.89315911 247.81274686 -249.91210938 244.91015625 C-249.96008812 229.45283873 -248.69282714 214.63964541 -245.4375 199.5 C-245.22061523 198.48502441 -245.00373047 197.47004883 -244.78027344 196.42431641 C-237.97255477 165.45064903 -225.65756956 133.92564635 -206.6875 108.3125 C-206.24051758 107.69616699 -205.79353516 107.07983398 -205.33300781 106.44482422 C-199.19478193 97.98200324 -192.81893755 89.96912094 -185.6875 82.3125 C-184.49509878 80.94174817 -183.30736117 79.56692137 -182.125 78.1875 C-176.10178515 71.30973293 -169.64372936 65.28998349 -162.50390625 59.578125 C-160.73881551 58.15821844 -158.9929783 56.71365795 -157.27734375 55.234375 C-126.47439082 28.87368628 -87.79446986 12.1129485 -48.3125 4 C-47.24708984 3.77908691 -47.24708984 3.77908691 -46.16015625 3.55371094 C-30.85470028 0.63088907 -15.54004242 -0.05960999 0 0 Z " fill="#6BE4E7" transform="translate(249.6875,-0.3125)"/>
<path d="M0 0 C9.24 0 18.48 0 28 0 C29.95409761 5.21092695 31.53880882 9.70714642 32.77075195 15.02441406 C32.92453812 15.6813796 33.07832428 16.33834515 33.23677063 17.01521873 C33.74238261 19.18086815 34.24035248 21.34819734 34.73828125 23.515625 C35.09915268 25.0683369 35.46050791 26.62093642 35.8223114 28.1734314 C36.59175653 31.47959515 37.35786507 34.78650722 38.12133789 38.09405518 C39.31779192 43.27681749 40.52258003 48.45762058 41.72851562 53.63818359 C45.06895096 67.99645756 48.39250942 82.35862303 51.70487881 96.7233963 C53.01186355 102.39088267 54.32236185 108.05754928 55.6353159 113.7236557 C56.68350067 118.2494136 57.72209314 122.77731368 58.7590332 127.30566406 C59.29735177 129.63354151 59.83598758 131.96134562 60.375 134.2890625 C60.73316048 135.86788712 60.73316048 135.86788712 61.09855652 137.47860718 C61.32126724 138.43393341 61.54397797 139.38925964 61.7734375 140.37353516 C61.96341309 141.2005191 62.15338867 142.02750305 62.34912109 142.87954712 C62.97127213 145.26687598 62.97127213 145.26687598 65 148 C66.61858522 142.08193905 68.23595218 136.16354685 69.85229492 130.24487305 C70.39982933 128.24055461 70.94766998 126.2363198 71.49584961 124.23217773 C72.82436937 119.37473931 74.14719733 114.51592588 75.45849609 109.65380859 C76.45185179 105.97890272 77.48160088 102.31769586 78.54541016 98.66259766 C78.78403275 97.81957596 79.02265533 96.97655426 79.26850891 96.10798645 C79.70872887 94.55290943 80.16177483 93.00136971 80.63127136 91.45487976 C83.71649693 80.36445785 79.81274967 69.23215671 77.18359375 58.37890625 C76.80321267 56.78628667 76.42350923 55.19350511 76.04444885 53.60057068 C75.05206875 49.43629847 74.05251257 45.27378681 73.05078125 41.11175537 C71.44261837 34.42702817 69.84314904 27.74023137 68.24815559 21.052351 C67.69069501 18.72110307 67.12870869 16.39097927 66.56626892 14.06092834 C66.22558182 12.63774299 65.88504326 11.21452206 65.54467773 9.79125977 C65.24569077 8.54901138 64.9467038 7.306763 64.63865662 6.02687073 C64 3 64 3 64 0 C73.57 0 83.14 0 93 0 C96.03222221 12.0149086 98.93274093 24.05572656 101.7734375 36.1171875 C102.22409706 38.02745297 102.67483321 39.93770038 103.12564087 41.84793091 C104.06587232 45.83303412 105.00538681 49.8183054 105.94433594 53.80371094 C107.12869503 58.83064381 108.31455014 63.85722228 109.50086594 68.8836937 C112.15243516 80.11918408 114.79777715 91.35612389 117.43540955 102.59489441 C117.96662878 104.85784153 118.49846152 107.12064366 119.03039551 109.38342285 C119.89158808 113.04892471 120.74729839 116.71568922 121.6015625 120.3828125 C121.95714737 121.8953511 121.95714737 121.8953511 122.31991577 123.43844604 C123.44236497 128.28241188 124.33985586 133.06676599 125 138 C125.95462439 141.67664576 127.02388242 145.30669852 128.09936523 148.94946289 C128.39657471 149.95614014 128.69378418 150.96281738 129 152 C132.27194501 140.37329911 135.42758074 128.72248955 138.42993164 117.02319336 C139.06165866 114.56577282 139.69969452 112.11004418 140.33789062 109.65429688 C145.46449635 89.80703019 149.05478335 69.97181682 152 49.6875 C154.37704569 33.39289819 156.96461945 17.1864378 160 1 C166.93 1 173.86 1 181 1 C179.49814708 9.90384233 177.46121166 18.62628177 175.25 27.375 C175.07458679 28.07399414 174.89917358 28.77298828 174.71844482 29.49316406 C172.0871289 39.9717976 169.2821568 50.38611199 166.2265625 60.75 C165.24478414 64.09922176 164.35859885 67.46357715 163.52783203 70.85400391 C159.05755749 89.02870938 154.11671247 107.09221615 149.28094482 125.17205811 C144.7573149 142.09095117 140.34585564 159.03444817 136 176 C125.77 176 115.54 176 105 176 C101.12076704 161.89286067 97.84549842 147.66164825 94.55541992 133.4074707 C93.82673464 130.25424646 93.0950975 127.10171754 92.36328125 123.94921875 C92.14037918 122.97852951 91.91747711 122.00784027 91.68782043 121.00773621 C91.48057846 120.1153273 91.27333649 119.2229184 91.05981445 118.3034668 C90.87868607 117.51820114 90.69755768 116.73293549 90.51094055 115.9238739 C90.05270859 113.93654414 90.05270859 113.93654414 89 112 C88.68719589 113.1993644 88.68719589 113.1993644 88.36807251 114.42295837 C86.40480198 121.94473149 84.43381378 129.46442958 82.45405006 136.98187923 C81.43642097 140.8470799 80.42183171 144.71302635 79.4140625 148.58081055 C78.4420495 152.31091286 77.46221836 156.03887904 76.4768486 159.76547432 C76.10163451 161.19014262 75.72928078 162.61556731 75.3597908 164.04173088 C74.8431979 166.03370253 74.3166508 168.02278202 73.78759766 170.01147461 C73.49003571 171.14620712 73.19247375 172.28093964 72.88589478 173.45005798 C72 176 72 176 70 177 C65.33791703 177.24487459 60.66778632 177.18520286 56 177.1875 C54.6903125 177.19974609 53.380625 177.21199219 52.03125 177.22460938 C50.15953125 177.22750977 50.15953125 177.22750977 48.25 177.23046875 C47.10015625 177.23457764 45.9503125 177.23868652 44.765625 177.24291992 C42 177 42 177 40 175 C39.33617115 172.98202991 39.33617115 172.98202991 38.74360657 170.45039368 C38.51537704 169.49115997 38.28714752 168.53192627 38.05200195 167.54362488 C37.80836914 166.48677994 37.56473633 165.429935 37.3137207 164.34106445 C36.92049873 162.67430664 36.92049873 162.67430664 36.51933289 160.97387695 C35.64785301 157.27194186 34.78677678 153.56766764 33.92578125 149.86328125 C33.31823626 147.27225324 32.71014702 144.68135878 32.10136414 142.09062195 C30.81972426 136.63142781 29.54339257 131.17101553 28.27075195 125.7097168 C26.50276618 118.12277787 24.72537645 110.53806712 22.94595659 102.95380306 C11.69446722 54.98720822 11.69446722 54.98720822 7.01802063 33.92121887 C5.30744678 26.23245358 3.45406867 18.58781778 1.42240906 10.97721863 C0.41026494 7.09634309 0 4.07361341 0 0 Z M64 150 C65 152 65 152 65 152 Z " fill="#6CE4E7" transform="translate(267,164)"/>
<path d="M0 0 C0.66 0 1.32 0 2 0 C2.45890625 1.14597656 2.9178125 2.29195313 3.390625 3.47265625 C4.01015588 5.00270979 4.62996226 6.53265179 5.25 8.0625 C5.55035156 8.81466797 5.85070312 9.56683594 6.16015625 10.34179688 C7.64640486 13.99417378 9.18970671 17.43236679 11.234375 20.80859375 C13 24 13 24 13 28 C8.71 28 4.42 28 0 28 C0 18.76 0 9.52 0 0 Z " fill="#70E1E7" transform="translate(108,300)"/>
<path d="M0 0 C0.66 0 1.32 0 2 0 C0.60902426 5.05809359 -1.23736884 10.22800906 -5 14 C-7.99904015 14.78654072 -9.85222819 14.47216577 -13 14 C-14 13 -14 13 -14.09765625 11.15234375 C-14.06510417 9.1015625 -14.03255208 7.05078125 -14 5 C-13.34 5 -12.68 5 -12 5 C-12 7.31 -12 9.62 -12 12 C-11.01 12 -10.02 12 -9 12 C-8.9175 11.21625 -8.835 10.4325 -8.75 9.625 C-8 7 -8 7 -5.9375 5.6875 C-5.298125 5.460625 -4.65875 5.23375 -4 5 C-4 4.34 -4 3.68 -4 3 C-3.01 2.67 -2.02 2.34 -1 2 C-0.67 1.34 -0.34 0.68 0 0 Z " fill="#4CB6CD" transform="translate(271,208)"/>
<path d="M0 0 C0.99 0.495 0.99 0.495 2 1 C2.33 3.64 2.66 6.28 3 9 C12.57 9.33 22.14 9.66 32 10 C32.33 9.01 32.66 8.02 33 7 C33 8.32 33 9.64 33 11 C28.42337784 13.28831108 22.02502708 12.18502705 17 12.1875 C15.6903125 12.19974609 14.380625 12.21199219 13.03125 12.22460938 C11.15953125 12.22750977 11.15953125 12.22750977 9.25 12.23046875 C8.10015625 12.23457764 6.9503125 12.23868652 5.765625 12.24291992 C3 12 3 12 1 10 C0.5859375 7.6171875 0.5859375 7.6171875 0.375 4.875 C0.30023438 3.96492188 0.22546875 3.05484375 0.1484375 2.1171875 C0.09945313 1.41851562 0.05046875 0.71984375 0 0 Z " fill="#A5E8E9" transform="translate(306,329)"/>
<path d="M0 0 C0.33 0.66 0.66 1.32 1 2 C0.34 2 -0.32 2 -1 2 C-1.2475 2.598125 -1.495 3.19625 -1.75 3.8125 C-3.21618155 6.37831772 -4.54719812 7.36479875 -7 9 C-8.03125 9.721875 -9.0625 10.44375 -10.125 11.1875 C-13 13 -13 13 -15 13 C-14.67 14.32 -14.34 15.64 -14 17 C-17 17 -17 17 -19 16 C-19.66 17.32 -20.32 18.64 -21 20 C-21.99 19.67 -22.98 19.34 -24 19 C-16.48822145 11.78929474 -8.68898361 5.71898126 0 0 Z " fill="#7ADFE0" transform="translate(106,45)"/>
<path d="M0 0 C0.66 0 1.32 0 2 0 C3.32 6.6 4.64 13.2 6 20 C6.66 20 7.32 20 8 20 C7.67 22.31 7.34 24.62 7 27 C7.66 27 8.32 27 9 27 C9 30.3 9 33.6 9 37 C7.17283057 33.34566113 6.22713555 30.34711511 5.2734375 26.40625 C4.9640625 25.12878906 4.6546875 23.85132813 4.3359375 22.53515625 C4.17834961 21.87273926 4.02076172 21.21032227 3.85839844 20.52783203 C3.37620628 18.50506027 2.88397367 16.48491983 2.390625 14.46484375 C0 4.51060268 0 4.51060268 0 0 Z " fill="#83DFDF" transform="translate(332,168)"/>
<path d="M0 0 C5.72554976 4.25906017 11.37992202 8.60280936 17 13 C15.02 13.99 15.02 13.99 13 15 C13 14.34 13 13.68 13 13 C10.16032769 13 7.76264289 13.40267181 5 14 C5.226875 13.236875 5.45375 12.47375 5.6875 11.6875 C6.30883471 9.014688 6.30883471 9.014688 4.75 7.3125 C3.20574542 6.15430906 1.60612185 5.0707479 0 4 C0 2.68 0 1.36 0 0 Z " fill="#47B7D0" transform="translate(150,361)"/>
<path d="M0 0 C2.51564471 1.11806432 4.35798767 2.29533983 6.5 4.0625 C8.82767647 5.86644927 10.1441791 6.57691542 13 7 C12.67 6.01 12.34 5.02 12 4 C12.66 3.01 13.32 2.02 14 1 C14.66 1 15.32 1 16 1 C15.979375 1.886875 15.95875 2.77375 15.9375 3.6875 C15.99286219 6.62169631 16.3305734 9.15493696 17 12 C17.99 12 18.98 12 20 12 C20 12.66 20 13.32 20 14 C15.45063893 12.69634262 12.1123959 10.93384913 8.3125 8.125 C7.38050781 7.44695312 6.44851562 6.76890625 5.48828125 6.0703125 C3.22324449 4.18574502 1.63219559 2.43464627 0 0 Z " fill="#4BB3CD" transform="translate(176,323)"/>
<path d="M0 0 C-2.69556168 1.79704112 -4.02282901 2.39618205 -7.0546875 3.0703125 C-7.83457031 3.24433594 -8.61445313 3.41835938 -9.41796875 3.59765625 C-10.22878906 3.77167969 -11.03960937 3.94570313 -11.875 4.125 C-13.07962891 4.39763672 -13.07962891 4.39763672 -14.30859375 4.67578125 C-18.26553221 5.54278754 -21.92225005 6.24763664 -26 6 C-25.67 5.34 -25.34 4.68 -25 4 C-22.69 4 -20.38 4 -18 4 C-18 3.34 -18 2.68 -18 2 C-11.85915965 -1.41157797 -6.74705837 -0.95546578 0 0 Z " fill="#51B4CF" transform="translate(316,491)"/>
<path d="M0 0 C0.33 0 0.66 0 1 0 C1.28383912 5.96062145 0.80569093 10.35690477 -1.27734375 15.9375 C-2.12137054 18.14765686 -2.12137054 18.14765686 -2.5 21.1875 C-3.09130718 24.51360288 -4.38502977 27.05092392 -6 30 C-7.36138702 26.25914524 -6.62045822 23.69427153 -5.56640625 19.921875 C-5.24736328 18.76171875 -4.92832031 17.6015625 -4.59960938 16.40625 C-4.25736328 15.1996875 -3.91511719 13.993125 -3.5625 12.75 C-3.22412109 11.52796875 -2.88574219 10.3059375 -2.53710938 9.046875 C-1.70004483 6.02872678 -0.8540441 3.01337917 0 0 Z " fill="#7DDFDE" transform="translate(344,268)"/>
<path d="M0 0 C2.33333333 0.33333333 4.66666667 0.66666667 7 1 C8.27875 1.144375 9.5575 1.28875 10.875 1.4375 C11.90625 1.623125 12.9375 1.80875 14 2 C14.33 2.66 14.66 3.32 15 4 C16.99226169 4.28919928 18.98722182 4.57264551 20.9921875 4.75390625 C23 5 23 5 26 6 C25.67 6.66 25.34 7.32 25 8 C26.98 8 28.96 8 31 8 C31 8.66 31 9.32 31 10 C23.71056271 8.74183401 16.86044388 6.7885101 9.875 4.375 C8.91851562 4.05015625 7.96203125 3.7253125 6.9765625 3.390625 C4.64908723 2.59928341 2.3236955 1.80235801 0 1 C0 0.67 0 0.34 0 0 Z " fill="#55B1C9" transform="translate(159,483)"/>
<path d="M0 0 C2.05001625 3.63622792 3.11061921 7.49571404 4.1875 11.5 C4.37763672 12.16386719 4.56777344 12.82773438 4.76367188 13.51171875 C5.70042976 16.97530326 6.36341389 19.59580736 5 23 C2 18.375 2 18.375 2 15 C1.34 14.67 0.68 14.34 0 14 C-1.59599126 9.35711632 -0.67221888 4.74689945 0 0 Z " fill="#4AB2C8" transform="translate(489,176)"/>
<path d="M0 0 C9.57 0 19.14 0 29 0 C31 7 31 7 31 11 C30.34 11 29.68 11 29 11 C29 10.01 29 9.02 29 8 C28.01 7.67 27.02 7.34 26 7 C26.66 5.02 27.32 3.04 28 1 C19.09 1 10.18 1 1 1 C0.67 1.66 0.34 2.32 0 3 C0 2.01 0 1.02 0 0 Z " fill="#7FDCDE" transform="translate(331,164)"/>
<path d="M0 0 C0 0.99 0 1.98 0 3 C-0.99 3.33 -1.98 3.66 -3 4 C-3.33 3.67 -3.66 3.34 -4 3 C-5.93947056 3.06597598 -5.93947056 3.06597598 -8.1875 3.375 C-8.99832031 3.47039063 -9.80914062 3.56578125 -10.64453125 3.6640625 C-12.56920702 3.93856021 -14.47714427 4.32825428 -16.375 4.75 C-17.24125 4.8325 -18.1075 4.915 -19 5 C-20.6640625 3.515625 -20.6640625 3.515625 -22 2 C-14.58856436 0.57374434 -7.55137932 -0.30071865 0 0 Z " fill="#7FDEE1" transform="translate(228,1)"/>
<path d="M0 0 C0 0.66 0 1.32 0 2 C-1.68066406 3.22094727 -1.68066406 3.22094727 -4.015625 4.56640625 C-4.85480469 5.05173828 -5.69398438 5.53707031 -6.55859375 6.03710938 C-7.44675781 6.54048828 -8.33492188 7.04386719 -9.25 7.5625 C-10.12269531 8.06974609 -10.99539063 8.57699219 -11.89453125 9.09960938 C-19.04293562 13.1976641 -19.04293562 13.1976641 -23 14 C-23 13.01 -23 12.02 -23 11 C-22.39671875 10.82984375 -21.7934375 10.6596875 -21.171875 10.484375 C-16.34781884 9.02159668 -13.4358798 7.80400978 -10 4 C-8.35636866 3.27840576 -6.68949614 2.60648579 -5 2 C-2 0 -2 0 0 0 Z " fill="#55B2C7" transform="translate(386,459)"/>
<path d="M0 0 C5.83096952 3.10157953 10.86601899 6.85556181 16 11 C15.34 11.66 14.68 12.32 14 13 C14 12.34 14 11.68 14 11 C12.02 11 10.04 11 8 11 C7.690625 9.8553125 7.690625 9.8553125 7.375 8.6875 C5.57929296 5.17770897 3.56863688 4.47400219 0 3 C0 2.01 0 1.02 0 0 Z M6 10 C6.66 10.66 7.32 11.32 8 12 C7.34 12 6.68 12 6 12 C6 11.34 6 10.68 6 10 Z " fill="#46B2CB" transform="translate(389,42)"/>
<path d="M0 0 C0.33 0 0.66 0 1 0 C1.13277344 1.07121094 1.26554688 2.14242188 1.40234375 3.24609375 C1.5805056 4.64325769 1.75890319 6.04039159 1.9375 7.4375 C2.06801758 8.49807617 2.06801758 8.49807617 2.20117188 9.58007812 C2.38216191 13.08817968 2.38216191 13.08817968 4 16 C4.23701239 18.85877909 4.42219182 21.69883297 4.5625 24.5625 C4.60568359 25.36880859 4.64886719 26.17511719 4.69335938 27.00585938 C4.79975262 29.00368805 4.90040888 31.0018207 5 33 C4.67 33 4.34 33 4 33 C3.31648995 29.56563469 2.65643566 26.12713415 2 22.6875 C1.80921875 21.73037109 1.6184375 20.77324219 1.421875 19.78710938 C0.16433043 13.11763191 -0.23895861 6.78128037 0 0 Z " fill="#8DDDDE" transform="translate(1,272)"/>
<path d="M0 0 C1.22419163 3.93795909 0.48320272 6.16112237 -1 10 C-1.66 10 -2.32 10 -3 10 C-2.938125 10.70125 -2.87625 11.4025 -2.8125 12.125 C-3.04368741 15.66987363 -4.36885123 17.86819436 -6 21 C-6.69907414 23.73572585 -6.69907414 23.73572585 -7 26 C-7.66 26 -8.32 26 -9 26 C-7.49234842 16.78657365 -3.66080856 8.52557288 0 0 Z " fill="#7EDCDD" transform="translate(20,150)"/>
<path d="M0 0 C2.29654728 3.90724786 3.16073072 8.13345051 4.1875 12.5 C4.37763672 13.25925781 4.56777344 14.01851562 4.76367188 14.80078125 C4.93833984 15.53683594 5.11300781 16.27289063 5.29296875 17.03125 C5.4530542 17.69705078 5.61313965 18.36285156 5.77807617 19.04882812 C6.03095122 21.27212557 5.65952499 22.87673786 5 25 C2.37837789 20.55464077 1.56609293 16.9037495 1.2109375 11.85546875 C1.19345347 9.98588386 1.19345347 9.98588386 0 9 C-0.07179964 7.48071962 -0.08392007 5.95832518 -0.0625 4.4375 C-0.05347656 3.61121094 -0.04445313 2.78492188 -0.03515625 1.93359375 C-0.02355469 1.29550781 -0.01195312 0.65742188 0 0 Z " fill="#87E0E1" transform="translate(313,241)"/>
<path d="M0 0 C0.99 0.33 1.98 0.66 3 1 C3 1.66 3 2.32 3 3 C3.66 3.33 4.32 3.66 5 4 C5.625 6.0625 5.625 6.0625 6 8 C4.41590006 7.88512252 2.83271037 7.75765492 1.25 7.625 C0.36828125 7.55539062 -0.5134375 7.48578125 -1.421875 7.4140625 C-3.99066382 7.00149945 -5.75841015 6.28839043 -8 5 C-6.865625 4.731875 -5.73125 4.46375 -4.5625 4.1875 C-3.386875 3.795625 -2.21125 3.40375 -1 3 C-0.67 2.01 -0.34 1.02 0 0 Z " fill="#49B4CE" transform="translate(209,334)"/>
<path d="M0 0 C8.415 3.96 8.415 3.96 17 8 C13.0398336 9.32005547 10.95512328 8.15926027 7 7 C4.20755955 6.83071457 4.20755955 6.83071457 2 7 C1.34 4.69 0.68 2.38 0 0 Z " fill="#4CB2C8" transform="translate(352,21)"/>
<path d="M0 0 C1.75917906 2.6387686 2.92919884 4.96078829 4.125 7.875 C4.47820312 8.71804688 4.83140625 9.56109375 5.1953125 10.4296875 C6.03182698 13.10166094 6.14952633 15.21881027 6 18 C5.34 18.33 4.68 18.66 4 19 C4 18.34 4 17.68 4 17 C3.34 17 2.68 17 2 17 C2.33 15.02 2.66 13.04 3 11 C2.01 10.67 1.02 10.34 0 10 C0 6.7 0 3.4 0 0 Z " fill="#52AFC5" transform="translate(272,289)"/>
<path d="M0 0 C4.95 0 9.9 0 15 0 C15 0.33 15 0.66 15 1 C12.33377553 1.48173829 9.66706329 1.96044625 7 2.4375 C6.25621094 2.57220703 5.51242188 2.70691406 4.74609375 2.84570312 C-0.15756564 3.71983371 -5.05264526 4.42093462 -10 5 C-9.34 4.67 -8.68 4.34 -8 4 C-8 3.34 -8 2.68 -8 2 C-5.36 2 -2.72 2 0 2 C0 1.34 0 0.68 0 0 Z " fill="#7EDEDF" transform="translate(219,101)"/>
<path d="M0 0 C0.66015625 1.76953125 0.66015625 1.76953125 1 4 C-0.49452201 6.80877094 -2.56998416 8.96157611 -5 11 C-8.375 11.9375 -8.375 11.9375 -11 12 C-7.49102731 7.81576108 -3.91939465 3.80411834 0 0 Z " fill="#7CE0E6" transform="translate(79,66)"/>
<path d="M0 0 C0.61328125 1.859375 0.61328125 1.859375 1 4 C-0.8125 6.25 -0.8125 6.25 -3 8 C-3.66 8 -4.32 8 -5 8 C-5.226875 8.928125 -5.45375 9.85625 -5.6875 10.8125 C-7.2088437 14.50719183 -8.46352496 15.32482761 -12 17 C-10.53416665 12.45928635 -7.95468267 9.23733031 -4.875 5.6875 C-4.40707031 5.13771484 -3.93914063 4.58792969 -3.45703125 4.02148438 C-2.31047517 2.67603591 -1.15602549 1.337321 0 0 Z " fill="#7CDDDF" transform="translate(57,90)"/>
<path d="M0 0 C3.44980157 -0.48230236 6.5736796 -0.7114192 10 0 C12.35937891 2.36456436 13.7027746 4.94127906 15 8 C11.45756548 6.63408831 8.07372071 5.09068516 4.6875 3.375 C3.80449219 2.92898438 2.92148438 2.48296875 2.01171875 2.0234375 C1.34785156 1.68570312 0.68398437 1.34796875 0 1 C0 0.67 0 0.34 0 0 Z " fill="#6ADBE7" transform="translate(122,340)"/>
<path d="M0 0 C0.33 0 0.66 0 1 0 C1.33 5.28 1.66 10.56 2 16 C1.34 16.33 0.68 16.66 0 17 C0.66 17.66 1.32 18.32 2 19 C1.01 19 0.02 19 -1 19 C-1.33 19.66 -1.66 20.32 -2 21 C-1.85845864 18.43719792 -1.71191438 15.87484515 -1.5625 13.3125 C-1.52318359 12.59126953 -1.48386719 11.87003906 -1.44335938 11.12695312 C-1.21814322 7.33292718 -0.87160695 3.71348508 0 0 Z " fill="#7CDBE1" transform="translate(2,212)"/>
<path d="M0 0 C0.33 0.66 0.66 1.32 1 2 C0.34 2 -0.32 2 -1 2 C-1.33 3.65 -1.66 5.3 -2 7 C-2.9075 7.268125 -3.815 7.53625 -4.75 7.8125 C-7.71471963 8.89576294 -9.6169754 9.98359457 -12 12 C-12.66 11.67 -13.32 11.34 -14 11 C-12.60886005 9.72403068 -11.21185587 8.45445352 -9.8125 7.1875 C-9.03519531 6.47980469 -8.25789062 5.77210938 -7.45703125 5.04296875 C-5.08015085 3.06664371 -2.68921134 1.51417406 0 0 Z " fill="#4FB3C5" transform="translate(185,172)"/>
<path d="M0 0 C0.66 0 1.32 0 2 0 C2.53251766 1.91345327 3.05059483 3.8309295 3.5625 5.75 C3.85253906 6.81734375 4.14257812 7.8846875 4.44140625 8.984375 C4.97098494 11.84335927 4.98370862 13.31597383 4 16 C3.67 14.35 3.34 12.7 3 11 C2.34 11 1.68 11 1 11 C1 10.34 1 9.68 1 9 C0.34 9 -0.32 9 -1 9 C-0.67 6.03 -0.34 3.06 0 0 Z " fill="#7CDFE0" transform="translate(299,186)"/>
<path d="M0 0 C2.97 0 5.94 0 9 0 C9.33 1.32 9.66 2.64 10 4 C5.545 3.01 5.545 3.01 1 2 C0.67 4.64 0.34 7.28 0 10 C-0.66 10 -1.32 10 -2 10 C-1.34 6.7 -0.68 3.4 0 0 Z " fill="#59B0C2" transform="translate(261,283)"/>
<path d="M0 0 C1.10224332 4.40897327 0.51921909 7.4427285 -0.4375 11.75 C-0.58509766 12.44738281 -0.73269531 13.14476562 -0.88476562 13.86328125 C-1.24868033 15.5772021 -1.62329068 17.28884581 -2 19 C-2.33 19 -2.66 19 -3 19 C-3.33623796 17.7090864 -3.66889249 16.41723903 -4 15.125 C-4.185625 14.40570313 -4.37125 13.68640625 -4.5625 12.9453125 C-5 11 -5 11 -5 9 C-3.68 9 -2.36 9 -1 9 C-0.67 6.03 -0.34 3.06 0 0 Z " fill="#51B2C7" transform="translate(496,290)"/>
<path d="M0 0 C1.32 0.33 2.64 0.66 4 1 C4 1.66 4 2.32 4 3 C4.66 3 5.32 3 6 3 C5.814375 3.86625 5.62875 4.7325 5.4375 5.625 C4.99332067 9.05152628 5.28045508 11.64212371 6 15 C4.19969878 12.29954818 3.06622934 9.93322119 1.875 6.9375 C1.52179687 6.05964844 1.16859375 5.18179687 0.8046875 4.27734375 C0 2 0 2 0 0 Z " fill="#7EDFE0" transform="translate(15,336)"/>
<path d="M0 0 C1.3921875 0.2784375 1.3921875 0.2784375 2.8125 0.5625 C6.01343771 1.24123881 6.01343771 1.24123881 9 0 C9.33 0.66 9.66 1.32 10 2 C9.34 2 8.68 2 8 2 C8.33 2.763125 8.66 3.52625 9 4.3125 C10 7 10 7 10 10 C6.66666667 6.66666667 3.33333333 3.33333333 0 0 Z " fill="#54B1C7" transform="translate(236,176)"/>
<path d="M0 0 C0.33 0.66 0.66 1.32 1 2 C3.02463255 2.65213292 3.02463255 2.65213292 5 3 C4.0479279 4.00596297 3.08812654 5.00461563 2.125 6 C1.59132813 6.556875 1.05765625 7.11375 0.5078125 7.6875 C-1 9 -1 9 -3 9 C-3 8.01 -3 7.02 -3 6 C-2.34 6 -1.68 6 -1 6 C-1.0309375 4.7934375 -1.0309375 4.7934375 -1.0625 3.5625 C-1 1 -1 1 0 0 Z " fill="#49B4D0" transform="translate(413,433)"/>
<path d="M0 0 C4.35808428 1.45269476 6.46128964 4.24712381 9 8 C9.71162443 9.64797236 10.39031953 11.31165408 11 13 C6.34140775 9.4248013 3.2184241 5.92229568 0 1 C0 0.67 0 0.34 0 0 Z " fill="#7DD9E0" transform="translate(52,403)"/>
<path d="M0 0 C0.4125 0.37511719 0.825 0.75023437 1.25 1.13671875 C5.56213158 4.95796035 10.03440438 8.08513088 15 11 C14.01 11.33 13.02 11.66 12 12 C10.66150329 11.00692179 9.32848691 10.00642948 8 9 C6.68 9 5.36 9 4 9 C3.566875 7.88625 3.566875 7.88625 3.125 6.75 C2.17631737 4.43099801 1.13440221 2.23067324 0 0 Z " fill="#52AEC0" transform="translate(197,316)"/>
<path d="M0 0 C0.66 0.33 1.32 0.66 2 1 C1.67 2.32 1.34 3.64 1 5 C-0.98 5 -2.96 5 -5 5 C-5.33 5.99 -5.66 6.98 -6 8 C-7.32 7.67 -8.64 7.34 -10 7 C-6.7 4.69 -3.4 2.38 0 0 Z " fill="#7BDCDC" transform="translate(117,37)"/>
<path d="M0 0 C-3.625 6.75 -3.625 6.75 -7 9 C-6.62875 8.071875 -6.2575 7.14375 -5.875 6.1875 C-5.58625 5.135625 -5.2975 4.08375 -5 3 C-5.66 2.01 -6.32 1.02 -7 0 C-3.98968256 -0.93423645 -3.13349732 -1.04449911 0 0 Z " fill="#76DDDC" transform="translate(135,154)"/>
<path d="M0 0 C1.32 0 2.64 0 4 0 C2.58707905 4.8274799 0.57025846 8.7162359 -2 13 C-2.33 12.34 -2.66 11.68 -3 11 C-2.690625 10.401875 -2.38125 9.80375 -2.0625 9.1875 C-0.81148289 6.61187654 -0.92556978 4.82834827 -1 2 C-0.67 1.34 -0.34 0.68 0 0 Z " fill="#55B2C8" transform="translate(470,361)"/>
<path d="M0 0 C7.48291572 6.15034169 7.48291572 6.15034169 10 10 C6.89257577 8.53181332 4.09528261 6.79975 1.25 4.875 C0.45078125 4.33617188 -0.3484375 3.79734375 -1.171875 3.2421875 C-1.77515625 2.83226563 -2.3784375 2.42234375 -3 2 C-2.01 1.34 -1.02 0.68 0 0 Z " fill="#54B1C8" transform="translate(331,121)"/>
<path d="M0 0 C0.556875 0.309375 1.11375 0.61875 1.6875 0.9375 C3.98169364 2.12452667 3.98169364 2.12452667 6.625 2.375 C9 3 9 3 10.3125 5.0625 C10.6528125 6.0215625 10.6528125 6.0215625 11 7 C6.66161736 7 6.25501626 6.79141434 3.25 4.0625 C2.63640625 3.51722656 2.0228125 2.97195313 1.390625 2.41015625 C0 1 0 1 0 0 Z " fill="#4DB3CD" transform="translate(84,437)"/>
<path d="M0 0 C1.39073768 2.62890497 2.43969204 5.12122047 3.1875 8 C3.36667969 8.66 3.54585938 9.32 3.73046875 10 C4.03576811 12.26540976 3.68136613 13.835092 3 16 C0.1647887 10.4477112 -0.37952295 6.19887485 0 0 Z " fill="#83DEE0" transform="translate(305,207)"/>
<path d="M0 0 C2 3 2 3 1.75 5.125 C1 7 1 7 -1 8 C-1.65213292 10.02463255 -1.65213292 10.02463255 -2 12 C-2.66 12 -3.32 12 -4 12 C-3.52309796 10.37433394 -3.04340334 8.74948689 -2.5625 7.125 C-2.29566406 6.22007812 -2.02882812 5.31515625 -1.75390625 4.3828125 C-1 2 -1 2 0 0 Z " fill="#50B1C8" transform="translate(159,202)"/>
<path d="M0 0 C2.62386487 3.06117568 3 3.73173127 3 8 C3.66 8 4.32 8 5 8 C5.33 8.99 5.66 9.98 6 11 C5.67 11.66 5.34 12.32 5 13 C4.34 13 3.68 13 3 13 C2.49242138 11.58603098 1.99425075 10.16868271 1.5 8.75 C1.08234375 7.56664062 1.08234375 7.56664062 0.65625 6.359375 C0 4 0 4 0 0 Z " fill="#7FDDDD" transform="translate(10,320)"/>
<path d="M0 0 C2.97 0.495 2.97 0.495 6 1 C3.24479785 3.95929119 0.53372712 6.03681826 -3 8 C-2.37240135 5.07120629 -1.41377341 2.63904371 0 0 Z " fill="#78DEDD" transform="translate(163,123)"/>
<path d="M0 0 C-1.38782485 0.8466034 -2.78569397 1.67675339 -4.1875 2.5 C-4.96480469 2.9640625 -5.74210938 3.428125 -6.54296875 3.90625 C-9.24103386 5.10729647 -11.0806982 5.20741043 -14 5 C-9.94779194 1.59614523 -5.27662976 -1.75887659 0 0 Z " fill="#7CDCDC" transform="translate(157,19)"/>
<path d="M0 0 C1.34173403 0.92543709 2.67320159 1.86577405 4 2.8125 C5.11375 3.59560547 5.11375 3.59560547 6.25 4.39453125 C6.8275 4.92433594 7.405 5.45414062 8 6 C8 6.99 8 7.98 8 9 C6.65654015 8.26829419 5.32539416 7.51394247 4 6.75 C2.88625 6.12351562 2.88625 6.12351562 1.75 5.484375 C1.1725 4.99453125 0.595 4.5046875 0 4 C0 2.68 0 1.36 0 0 Z " fill="#4BB1C7" transform="translate(150,361)"/>
<path d="M0 0 C0 3.77910478 -0.99703962 4.46106101 -3.5 7.1875 C-4.47453125 8.26064453 -4.47453125 8.26064453 -5.46875 9.35546875 C-5.9740625 9.89816406 -6.479375 10.44085938 -7 11 C-7.33 9.68 -7.66 8.36 -8 7 C-7.01 6.67 -6.02 6.34 -5 6 C-3.96986723 4.35178756 -2.96885372 2.68496298 -2 1 C-1.34 0.67 -0.68 0.34 0 0 Z " fill="#5BB1C7" transform="translate(271,314)"/>
<path d="M0 0 C0.33 0 0.66 0 1 0 C1.39222105 1.41199578 1.76311059 2.82992764 2.125 4.25 C2.33382813 5.03890625 2.54265625 5.8278125 2.7578125 6.640625 C3.04314411 9.4203071 2.44977894 10.65887549 1 13 C0.01 12.34 -0.98 11.68 -2 11 C-1.34 10.67 -0.68 10.34 0 10 C-0.33 9.34 -0.66 8.68 -1 8 C-0.83219837 5.30434798 -0.38844355 2.67594446 0 0 Z " fill="#7DE3E3" transform="translate(387,282)"/>
<path d="M0 0 C1.25541557 3.76624671 0.37061958 5.37188934 -1 9 C-2.74627478 6.38058783 -3.38722388 4.96175123 -4 2 C-2.68 1.34 -1.36 0.68 0 0 Z " fill="#4FB5CF" transform="translate(391,188)"/>
<path d="M0 0 C4.16138263 -0.08159574 7.9472484 0.01751476 12 1 C11.360625 1.12375 10.72125 1.2475 10.0625 1.375 C9.381875 1.58125 8.70125 1.7875 8 2 C7.67 2.66 7.34 3.32 7 4 C6.67 3.67 6.34 3.34 6 3 C5.01 3 4.02 3 3 3 C3 2.34 3 1.68 3 1 C2.01 0.67 1.02 0.34 0 0 Z " fill="#50B0C8" transform="translate(230,163)"/>
<path d="M0 0 C0.99 0 1.98 0 3 0 C3 3.63 3 7.26 3 11 C1.04783565 7.09567131 0.49360009 4.27786748 0 0 Z " fill="#88E0E3" transform="translate(302,315)"/>
<path d="M0 0 C1.32 0 2.64 0 4 0 C3.01 3.3 2.02 6.6 1 10 C0.67 10 0.34 10 0 10 C0 6.7 0 3.4 0 0 Z " fill="#4EB1C5" transform="translate(185,198)"/>
<path d="M0 0 C0.99 0 1.98 0 3 0 C2.32829194 3.8063457 1.27253436 7.35206816 0 11 C-1.37432457 7.18243176 -0.67975039 3.92744671 0 0 Z " fill="#7FD8DC" transform="translate(110,189)"/>
<path d="M0 0 C2.86724686 0.57344937 3.8614515 0.8614515 6 3 C6 3.66 6 4.32 6 5 C3.36 4.34 0.72 3.68 -2 3 C-1.34 2.01 -0.68 1.02 0 0 Z " fill="#4CB4CA" transform="translate(230,171)"/>
<path d="M0 0 C0.79921875 0.00902344 1.5984375 0.01804688 2.421875 0.02734375 C3.02515625 0.03894531 3.6284375 0.05054688 4.25 0.0625 C1.21964345 1.62904025 -1.32105498 2.7196055 -4.75 3.0625 C-7.0625 2.125 -7.0625 2.125 -8.75 1.0625 C-5.75519083 0.1901588 -3.11424089 -0.04579766 0 0 Z " fill="#55AFC1" transform="translate(213.75,162.9375)"/>
<path d="M0 0 C1 3 1 3 1 5 C-2.82097239 4.46930939 -5.06171403 3.50298434 -8 1 C-7.05125 1.020625 -6.1025 1.04125 -5.125 1.0625 C-2.09333717 1.22551826 -2.09333717 1.22551826 0 0 Z " fill="#4CB5C9" transform="translate(323,114)"/>
<path d="M0 0 C0.99 0.33 1.98 0.66 3 1 C3 2.65 3 4.3 3 6 C2.01 6.495 2.01 6.495 1 7 C1 6.34 1 5.68 1 5 C0.34 5 -0.32 5 -1 5 C-0.67 3.35 -0.34 1.7 0 0 Z " fill="#4DB1CF" transform="translate(275,301)"/>
<path d="M0 0 C1.67110042 2.96178773 2.32682752 5.37071192 2.625 8.75 C2.69976562 9.54921875 2.77453125 10.3484375 2.8515625 11.171875 C2.90054687 11.77515625 2.94953125 12.3784375 3 13 C0.95204577 11.0373772 0.05023362 9.5722693 -0.19921875 6.73046875 C-0.18858877 4.48045617 -0.12958525 2.24614438 0 0 Z " fill="#7DDADC" transform="translate(313,241)"/>
<path d="M0 0 C1.42944945 2.35438733 2.08661261 3.48032433 1.625 6.25 C1.41875 6.8275 1.2125 7.405 1 8 C0.01 7.67 -0.98 7.34 -2 7 C-1.125 2.25 -1.125 2.25 0 0 Z " fill="#75E0E0" transform="translate(371,214)"/>
<path d="M0 0 C7.57142857 4.14285714 7.57142857 4.14285714 10 7 C6.33118845 6.29445932 3.29549466 4.72264494 0 3 C0 2.01 0 1.02 0 0 Z " fill="#52AEC4" transform="translate(389,42)"/>
<path d="M0 0 C0.66 0.33 1.32 0.66 2 1 C0.02 3.97 -1.96 6.94 -4 10 C-5 7 -5 7 -3.6875 4.3125 C-3.130625 3.549375 -2.57375 2.78625 -2 2 C-1.34 2 -0.68 2 0 2 C0 1.34 0 0.68 0 0 Z " fill="#59ACC0" transform="translate(195,186)"/>
<path d="M0 0 C2.95183101 2.95183101 3.08663988 5.95511947 4 10 C3.34 10 2.68 10 2 10 C2 8.68 2 7.36 2 6 C1.01 6 0.02 6 -1 6 C-0.67 4.02 -0.34 2.04 0 0 Z " fill="#52ADC3" transform="translate(485,165)"/>
<path d="M0 0 C4.12751449 0.60698743 7.3321148 2.03810791 11 4 C9.375 4.6875 9.375 4.6875 7 5 C1.33333333 2.66666667 1.33333333 2.66666667 0 0 Z " fill="#57ACC6" transform="translate(245,166)"/>
<path d="M0 0 C2.15377564 2.62198774 3.40072174 4.64404172 4 8 C2.35 7.67 0.7 7.34 -1 7 C-0.67 4.69 -0.34 2.38 0 0 Z " fill="#4DB4C9" transform="translate(473,137)"/>
<path d="M0 0 C0.66 0.33 1.32 0.66 2 1 C2 1.66 2 2.32 2 3 C2.99 3.33 3.98 3.66 5 4 C5 4.66 5 5.32 5 6 C2.08482708 4.92598892 0.22189824 4.22189824 -2 2 C-1.34 1.34 -0.68 0.68 0 0 Z " fill="#4EB5CA" transform="translate(128,465)"/>
<path d="M0 0 C3.16115776 1.36983503 3.9927092 1.9890638 6 5 C5.34 5.66 4.68 6.32 4 7 C2 5.1875 2 5.1875 0 3 C0 2.01 0 1.02 0 0 Z " fill="#53B8C9" transform="translate(136,348)"/>
<path d="M0 0 C1.09570312 0.10183594 2.19140625 0.20367187 3.3203125 0.30859375 C4.16335937 0.39238281 5.00640625 0.47617187 5.875 0.5625 C5.875 0.8925 5.875 1.2225 5.875 1.5625 C1.255 1.8925 -3.365 2.2225 -8.125 2.5625 C-8.125 1.9025 -8.125 1.2425 -8.125 0.5625 C-5.28943413 -0.85528293 -3.1341294 -0.30007622 0 0 Z " fill="#4CB2CE" transform="translate(130.125,327.4375)"/>
<path d="M0 0 C4.875 2.625 4.875 2.625 6 6 C3.03 5.01 0.06 4.02 -3 3 C-2.01 2.01 -1.02 1.02 0 0 Z " fill="#55B6C8" transform="translate(306,108)"/>
<path d="M0 0 C0.66 0.33 1.32 0.66 2 1 C0.68 2.65 -0.64 4.3 -2 6 C-3.32 5.67 -4.64 5.34 -6 5 C-4.02 3.35 -2.04 1.7 0 0 Z " fill="#54B1C2" transform="translate(343,366)"/>
<path d="M0 0 C-0.33 0.66 -0.66 1.32 -1 2 C-3.64860427 2.59355614 -6.29197322 2.74209269 -9 3 C-9 2.34 -9 1.68 -9 1 C-5.92677456 0.08941469 -3.19902639 -0.08886184 0 0 Z " fill="#79DADA" transform="translate(205,4)"/>
</svg>
